<?xml version="1.0" standalone="no"?><!DOCTYPE svg PUBLIC "-//W3C//DTD SVG 1.1//EN" "http://www.w3.org/Graphics/SVG/1.1/DTD/svg11.dtd"><svg t="1605147316451" class="icon" viewBox="0 0 1024 1024" version="1.1" xmlns="http://www.w3.org/2000/svg" p-id="7620" xmlns:xlink="http://www.w3.org/1999/xlink" width="200" height="200"><defs><style type="text/css"></style></defs><path d="M984.687304 557.501217 519.880348 92.738783c-38.956522-38.956522-112.64-69.520696-167.735652-69.565217L141.490087 23.017739c0 0-0.044522 0-0.089043 0-32.812522 0-63.799652 12.154435-84.969739 33.346783-16.918261 16.918261-26.223304 38.466783-26.201043 60.68313L30.274783 188.816696l44.521739-0.022261L74.752 116.98087c0-13.200696 7.145739-23.151304 13.156174-29.161739C100.61913 75.130435 120.609391 67.539478 141.401043 67.539478c0.022261 0 0.044522 0 0.066783 0l210.654609 0.155826c43.25287 0.022261 105.672348 25.911652 136.281043 56.520348l464.806957 464.784696c26.045217 26.045217 26.045217 68.407652 0 94.45287L690.665739 946.020174c-26.045217 26.022957-68.407652 26.022957-94.45287 0L131.383652 481.146435c-33.28-33.28-56.453565-81.897739-56.475826-104.71513l-0.022261-57.477565-44.521739 0.022261 0.022261 57.477565c0 37.398261 30.541913 97.213217 69.520696 136.169739L564.758261 977.497043c21.704348 21.704348 50.198261 32.545391 78.692174 32.545391 28.516174 0 57.010087-10.863304 78.714435-32.545391l262.544696-262.566957C1028.096 671.543652 1028.096 600.909913 984.687304 557.501217z" p-id="7621"></path><path d="M302.169043 419.528348c-32.100174 0-62.285913-12.510609-85.014261-35.216696-46.83687-46.85913-46.85913-123.12487 0-170.006261 22.728348-22.706087 52.914087-35.194435 85.014261-35.194435s62.263652 12.488348 84.969739 35.172174c46.83687 46.881391 46.83687 123.14713 0.022261 170.006261C364.454957 407.017739 334.269217 419.528348 302.169043 419.528348zM302.169043 223.632696c-20.21287 0-39.223652 7.880348-53.537391 22.149565-29.495652 29.495652-29.495652 77.512348 0 107.030261 28.605217 28.582957 78.447304 28.582957 107.052522 0 29.473391-29.495652 29.473391-77.512348 0-107.052522C341.370435 231.513043 322.359652 223.632696 302.169043 223.632696z" p-id="7622"></path></svg>